<?xml version="1.0" encoding="utf-8"?>
<!-- Generator: Adobe Illustrator 21.0.2, SVG Export Plug-In . SVG Version: 6.00 Build 0)  -->
<svg version="1.1" id="Layer_1" xmlns="http://www.w3.org/2000/svg" xmlns:xlink="http://www.w3.org/1999/xlink" x="0px" y="0px"
	 width="40px" height="40px" viewBox="0 0 40 40" style="enable-background:new 0 0 40 40;" xml:space="preserve">
<style type="text/css">
	.st0{fill:#36ADD9;}
</style>
<path class="st0" d="M31.9,9.4c0-0.1,0-0.2-0.1-0.3c-0.1-0.1-0.2-0.1-0.3-0.1c0,0,0,0-0.1,0h-8C23.2,9,23,9.2,23,9.4l0,2.2
	c0,0.2,0.2,0.4,0.4,0.4h3.3l-3.9,3.9c-0.1-0.1-0.2-0.2-0.3-0.2c-1.3-0.9-2.9-1.4-4.6-1.4c-4.6,0-8.3,3.7-8.3,8.3
	c0,4.6,3.7,8.3,8.3,8.3c4.6,0,8.3-3.7,8.3-8.3c0-1.7-0.5-3.3-1.4-4.6l4-4v3.5c0,0.2,0.2,0.4,0.4,0.4h2.2c0.2,0,0.4-0.2,0.4-0.4
	L31.9,9.4C31.9,9.5,31.9,9.4,31.9,9.4z M18,28c-3,0-5.4-2.4-5.4-5.4c0-3,2.4-5.4,5.4-5.4c0.9,0,1.7,0.2,2.4,0.6
	c0.9,0.5,1.7,1.2,2.2,2c0.5,0.8,0.8,1.8,0.8,2.8C23.3,25.6,20.9,28,18,28z"/>
</svg>
