<?xml version="1.0" encoding="utf-8"?>
<!-- Generator: Adobe Illustrator 21.0.2, SVG Export Plug-In . SVG Version: 6.00 Build 0)  -->
<svg version="1.1" id="Layer_1" xmlns="http://www.w3.org/2000/svg" xmlns:xlink="http://www.w3.org/1999/xlink" x="0px" y="0px"
	 width="40px" height="40px" viewBox="0 0 40 40" style="enable-background:new 0 0 40 40;" xml:space="preserve">
<style type="text/css">
	.st0{fill:#231F20;}
	.st1{fill:#D2376D;}
</style>
<path class="st0" d="M530.7,566.4c0-87.8-71.2-158.9-158.9-158.9c-87.8,0-158.9,71.2-158.9,158.9c0,78.1,56.4,143.1,130.6,156.4
	c0,0.3,0,0.6,0,0.8v46.5h-48.5c-4.5,0-8.2,3.3-8.2,7.4v41.9c0,4.1,3.7,7.4,8.2,7.4h48.5v50.5c0,4.5,3.3,8.2,7.4,8.2h41.9
	c4.1,0,7.4-3.7,7.4-8.2v-50.5h48.5c4.5,0,8.2-3.3,8.2-7.4v-41.9c0-4.1-3.7-7.4-8.2-7.4h-48.5v-46.5c0-0.3,0-0.6,0-0.8
	C474.4,709.4,530.7,644.5,530.7,566.4z M371.8,668.6c-56.4,0-102.2-45.9-102.2-102.2c0-56.4,45.9-102.2,102.2-102.2
	c56.4,0,102.2,45.9,102.2,102.2C474,622.8,428.2,668.6,371.8,668.6z"/>
<path class="st1" d="M29.1,15.4c0-4.6-3.7-8.3-8.3-8.3c-4.6,0-8.3,3.7-8.3,8.3c0,4.1,2.9,7.5,6.8,8.2c0,0,0,0,0,0V26h-2.5
	c-0.2,0-0.4,0.2-0.4,0.4v2.2c0,0.2,0.2,0.4,0.4,0.4h2.5v2.6c0,0.2,0.2,0.4,0.4,0.4h2.2c0.2,0,0.4-0.2,0.4-0.4V29h2.5
	c0.2,0,0.4-0.2,0.4-0.4v-2.2c0-0.2-0.2-0.4-0.4-0.4h-2.5v-2.4c0,0,0,0,0,0C26.1,22.8,29.1,19.4,29.1,15.4z M20.8,20.7
	c-3,0-5.4-2.4-5.4-5.4c0-3,2.4-5.4,5.4-5.4c3,0,5.4,2.4,5.4,5.4C26.1,18.3,23.7,20.7,20.8,20.7z"/>
</svg>
