<?xml version="1.0" encoding="utf-8"?>
<!-- Generator: Adobe Illustrator 22.1.0, SVG Export Plug-In . SVG Version: 6.00 Build 0)  -->
<svg version="1.1" id="Layer_1" xmlns="http://www.w3.org/2000/svg" xmlns:xlink="http://www.w3.org/1999/xlink" x="0px" y="0px"
	 viewBox="0 0 100 100" style="enable-background:new 0 0 100 100;" xml:space="preserve">
<style type="text/css">
	.st0{opacity:0.6;fill:#FFFFFF;}
	.st1{fill:#CFE6D9;}
	.st2{fill:#DEE7EF;}
	.st3{fill:#206095;}
	.st4{fill:none;stroke:#D9DBDB;stroke-width:3;stroke-miterlimit:10;}
	.st5{fill:#525154;}
	.st6{fill-rule:evenodd;clip-rule:evenodd;fill:#EAEAEA;}
	.st7{fill:#C1C1C1;}
	.st8{fill-rule:evenodd;clip-rule:evenodd;fill:#FFFFFF;}
	.st9{fill:#FFFFFF;}
	.st10{fill:none;stroke:#D9DBDB;stroke-width:4;stroke-miterlimit:10;}
	.st11{fill:none;stroke:#206095;stroke-width:2;stroke-miterlimit:10;}
	.st12{fill:none;stroke:#FFFFFF;stroke-width:2;stroke-miterlimit:10;}
	.st13{fill:none;stroke:#FFFFFF;stroke-width:3.5;stroke-linecap:round;stroke-linejoin:round;stroke-miterlimit:10;}
	.st14{fill:none;stroke:#206095;stroke-width:4;stroke-linecap:round;stroke-linejoin:round;stroke-miterlimit:10;}
	.st15{fill:#D0D2D3;}
	.st16{fill:#00722F;}
	.st17{fill:#5A371D;}
	.st18{fill:#6CB743;}
	.st19{fill:#379E43;}
	.st20{fill:none;stroke:#D0D2D3;stroke-width:8;stroke-miterlimit:10;}
	.st21{fill:none;stroke:#A8BD3A;stroke-width:12;stroke-miterlimit:10;}
	.st22{fill:none;stroke:#0F8243;stroke-width:3;stroke-miterlimit:10;}
	.st23{fill:none;stroke:#206095;stroke-width:2.0113;stroke-miterlimit:10;}
	.st24{fill:none;stroke:#D9DBDB;stroke-width:6;stroke-miterlimit:10;}
	.st25{fill:#0F8243;}
	.st26{fill:none;stroke:#D9DBDB;stroke-width:2;stroke-miterlimit:10;}
	.st27{fill:none;stroke:#0F8243;stroke-width:2;stroke-miterlimit:10;}
</style>
<path class="st3" d="M2.4,2.2v95.2h95.2V2.2H2.4z M47.5,72.6c-5.6,5.6-14.7,5.6-20.3,0c-5.6-5.6-5.6-14.7,0-20.3l10.2-10.2
	c5.6-5.6,14.7-5.6,20.3,0c0.9,0.9,1.6,1.9,2.2,2.9l-4.7,4.7c-0.2,0.2-0.5,0.4-0.8,0.5c-0.3-1.1-0.9-2.2-1.8-3
	c-2.8-2.8-7.4-2.8-10.2,0L32.2,57.4c-2.8,2.8-2.8,7.4,0,10.2c2.8,2.8,7.4,2.8,10.2,0l3.6-3.6c2.9,1.1,6.1,1.5,9.2,1L47.5,72.6z
	 M72.9,47.2L62.7,57.4C57.1,63,48,63,42.4,57.4c-0.9-0.9-1.6-1.9-2.2-2.9l4.7-4.7c0.2-0.2,0.5-0.4,0.8-0.5c0.3,1.1,0.9,2.2,1.8,3
	c2.8,2.8,7.4,2.8,10.2,0l10.2-10.2c2.8-2.8,2.8-7.4,0-10.2c-2.8-2.8-7.4-2.8-10.2,0L54,35.6c-2.9-1.1-6.1-1.5-9.2-1l7.7-7.7
	c5.6-5.6,14.7-5.6,20.3,0C78.5,32.5,78.5,41.6,72.9,47.2z"/>
</svg>
