<?xml version="1.0" encoding="utf-8"?>
<!-- Generator: Adobe Illustrator 22.1.0, SVG Export Plug-In . SVG Version: 6.00 Build 0)  -->
<svg version="1.1" id="Layer_1" xmlns="http://www.w3.org/2000/svg" xmlns:xlink="http://www.w3.org/1999/xlink" x="0px" y="0px"
	 viewBox="0 0 100 100" style="enable-background:new 0 0 100 100;" xml:space="preserve">
<style type="text/css">
	.st0{opacity:0.6;fill:#FFFFFF;}
	.st1{fill:#CFE6D9;}
	.st2{fill:#0F8243;}
	.st3{fill:#DEE7EF;}
	.st4{fill:#206095;}
	.st5{fill:none;stroke:#D9DBDB;stroke-width:3;stroke-miterlimit:10;}
	.st6{fill:#525154;}
	.st7{fill-rule:evenodd;clip-rule:evenodd;fill:#EAEAEA;}
	.st8{fill:#C1C1C1;}
	.st9{fill-rule:evenodd;clip-rule:evenodd;fill:#FFFFFF;}
	.st10{fill:#FFFFFF;}
	.st11{fill:none;stroke:#D9DBDB;stroke-width:4;stroke-miterlimit:10;}
	.st12{fill:none;stroke:#206095;stroke-width:2;stroke-miterlimit:10;}
	.st13{fill:none;stroke:#FFFFFF;stroke-width:2;stroke-miterlimit:10;}
	.st14{fill:none;stroke:#FFFFFF;stroke-width:3.5;stroke-linecap:round;stroke-linejoin:round;stroke-miterlimit:10;}
	.st15{fill:none;stroke:#206095;stroke-width:4;stroke-linecap:round;stroke-linejoin:round;stroke-miterlimit:10;}
	.st16{fill:#D0D2D3;}
	.st17{fill:#00722F;}
	.st18{fill:#5A371D;}
	.st19{fill:#6CB743;}
	.st20{fill:#379E43;}
	.st21{fill:none;stroke:#D0D2D3;stroke-width:8;stroke-miterlimit:10;}
	.st22{fill:none;stroke:#A8BD3A;stroke-width:12;stroke-miterlimit:10;}
	.st23{fill:none;stroke:#0F8243;stroke-width:3;stroke-miterlimit:10;}
	.st24{fill:none;stroke:#206095;stroke-width:2.0113;stroke-miterlimit:10;}
	.st25{fill:none;stroke:#D9DBDB;stroke-width:6;stroke-miterlimit:10;}
	.st26{fill:none;stroke:#D9DBDB;stroke-width:2;stroke-miterlimit:10;}
	.st27{fill:none;stroke:#0F8243;stroke-width:2;stroke-miterlimit:10;}
</style>
<path class="st4" d="M2.4,2.2v95.2h95.2V2.2H2.4z M71.3,38.8c0,0.5,0,0.9,0,1.4c0,14.5-11,31.2-31.2,31.2c-6.2,0-12-1.8-16.8-4.9
	c0.9,0.1,1.7,0.2,2.6,0.2c5.1,0,9.9-1.8,13.6-4.7c-4.8-0.1-8.9-3.3-10.3-7.6c0.7,0.1,1.4,0.2,2.1,0.2c1,0,2-0.1,2.9-0.4
	c-5-1-8.8-5.4-8.8-10.8c0,0,0-0.1,0-0.1c1.5,0.8,3.2,1.3,5,1.4c-2.9-2-4.9-5.3-4.9-9.1c0-2,0.5-3.9,1.5-5.5
	c5.4,6.6,13.5,11,22.6,11.5c-0.2-0.8-0.3-1.6-0.3-2.5c0-6.1,4.9-11,11-11c3.2,0,6,1.3,8,3.5c2.5-0.5,4.9-1.4,7-2.7
	c-0.8,2.6-2.6,4.7-4.8,6.1c2.2-0.3,4.3-0.9,6.3-1.7C75.3,35.4,73.4,37.3,71.3,38.8z"/>
</svg>
